<?xml version="1.0" encoding="utf-8"?>

<!DOCTYPE svg PUBLIC "-//W3C//DTD SVG 1.1//EN" "http://www.w3.org/Graphics/SVG/1.1/DTD/svg11.dtd">
<svg version="1.1" id="Layer_1" xmlns="http://www.w3.org/2000/svg" xmlns:xlink="http://www.w3.org/1999/xlink" x="0px" y="0px"
	 viewBox="0 0 2624.114 1606.848" enable-background="new 0 0 2624.114 1606.848" xml:space="preserve">
<g>
	<polygon fill="#516BB3" points="1400.681,335.938 1434.88,100.789 1435.081,29.9 1390.286,337.899 	"/>
	<polygon fill="#5F7ED4" points="1475.233,321.876 1340.459,470.403 1340.258,541.292 1475.032,392.765 	"/>
	<polygon fill="#455B99" points="1250.538,310.488 1250.337,381.377 1340.258,541.292 1340.459,470.403 	"/>
	<polygon fill="#6E92F5" points="1475.233,321.876 1400.681,335.938 1390.286,337.899 1435.081,29.9 1374.398,26.829 
		1329.614,334.822 1250.538,310.488 1340.459,470.403 	"/>
	<polygon fill="#6484DE" points="1939.623,496.331 1939.614,499.476 2232.595,329.214 2232.796,258.325 1856.6,476.946 	"/>
	<polygon fill="#6282DA" points="1939.614,499.476 1939.623,496.331 1671.276,559.617 1671.075,630.506 1939.422,567.22 	"/>
	<polygon fill="#6E92F5" points="1939.623,496.331 1856.6,476.946 2232.796,258.325 2189.599,233.385 1813.404,452.006 
		1779.656,403.974 1671.276,559.617 	"/>
	<polygon fill="#465C9B" points="829.975,424.937 522.395,171.681 522.194,242.57 754.897,434.174 	"/>
	<polygon fill="#4E67AD" points="742.564,435.691 742.363,506.58 988.517,595.935 988.718,525.046 	"/>
	<polygon fill="#6E92F5" points="754.897,434.174 742.564,435.691 988.718,525.046 926.856,360.777 879.74,404.707 572.17,151.445 
		522.395,171.681 829.975,424.937 	"/>
	<polygon fill="#455B99" points="551.09,594.832 550.95,644.117 563.845,646.117 	"/>
	<polygon fill="#5671BE" points="493.438,720.995 548.29,680.184 32.258,600.167 32.057,671.057 493.377,742.589 	"/>
	<polygon fill="#5E7DD1" points="493.438,720.995 493.377,742.589 493.237,791.884 780.456,768.866 780.657,697.977 	"/>
	<polygon fill="#6E92F5" points="493.438,720.995 780.657,697.977 551.09,594.832 563.845,646.117 550.95,644.117 47.834,566.1 
		32.258,600.167 548.29,680.184 	"/>
	<polygon fill="#4A62A4" points="523.769,914.523 523.619,967.241 590.435,949.166 	"/>
	<polygon fill="#455B99" points="616.344,981.135 616.143,1052.024 619.524,1103.787 619.725,1032.898 	"/>
	<polygon fill="#6384DD" points="813.598,908.279 619.725,1032.898 619.524,1103.787 813.397,979.168 	"/>
	<polygon fill="#455B99" points="107.416,1079.831 107.215,1150.72 133.125,1182.689 133.326,1111.8 	"/>
	<polygon fill="#6383DB" points="133.326,1111.8 133.125,1182.689 616.143,1052.024 616.344,981.135 	"/>
	<polygon fill="#6E92F5" points="616.344,981.135 619.725,1032.898 813.598,908.279 523.769,914.523 590.435,949.166 
		523.619,967.241 107.416,1079.831 133.326,1111.8 	"/>
	<polygon fill="#5A77C7" points="2082.225,720.276 2082.361,672.402 2054.977,721.658 	"/>
	<polygon fill="#5D7CCF" points="2060.488,756.792 2102.745,802.51 2102.68,825.532 2591.856,800.734 2592.057,729.844 	"/>
	<polygon fill="#5470BB" points="1826.376,750.947 1826.175,821.836 2102.544,873.399 2102.68,825.532 2102.745,802.51 	"/>
	<polygon fill="#6E92F5" points="2102.745,802.51 2060.488,756.792 2592.057,729.844 2586.557,694.705 2082.225,720.276 
		2054.977,721.658 2082.361,672.402 1826.376,750.947 	"/>
	<polygon fill="#6384DD" points="2016.83,1048.161 2016.994,990.169 1941.299,1017.598 	"/>
	<polygon fill="#5671BE" points="1888.256,1097.157 1888.055,1168.046 1906.334,1117.379 1906.535,1046.49 	"/>
	<polygon fill="#455C9A" points="1733.19,954.867 1732.989,1025.756 1888.055,1168.046 1888.256,1097.157 	"/>
	<polygon fill="#4D66AB" points="1906.535,1046.49 1906.334,1117.379 2344.559,1294.713 2344.76,1223.824 	"/>
	<polygon fill="#6281D9" points="2344.559,1294.713 2379.332,1265.816 2379.533,1194.926 2344.76,1223.824 	"/>
	<polygon fill="#6E92F5" points="1941.299,1017.598 2016.994,990.169 1733.19,954.867 1888.256,1097.157 1906.535,1046.49 
		2344.76,1223.824 2379.533,1194.926 2016.83,1048.161 	"/>
	<polygon fill="#5A78C9" points="857.656,1170.267 857.455,1241.156 891.25,1241.833 947.029,1172.056 	"/>
	<polygon fill="#5875C4" points="1560.084,1275.086 1613.952,1279.481 1614.153,1208.592 1525.564,1201.365 	"/>
	<polygon fill="#485FA0" points="1002.304,1186.959 1002.103,1257.848 1062.13,1296.351 1062.332,1225.462 	"/>
	<polygon fill="#4F68AF" points="1062.13,1296.351 1071.952,1128.445 1072.153,1057.556 1062.332,1225.462 	"/>
	<polygon fill="#6484DE" points="1396.535,1242.398 1396.334,1313.287 1466.61,1281.382 1466.811,1210.493 	"/>
	<polygon fill="#6E92F5" points="947.029,1172.056 891.25,1241.833 723.03,1452.266 778.305,1467.169 1002.304,1186.959 
		1062.332,1225.462 1072.153,1057.556 857.656,1170.267 	"/>
	<polygon fill="#5E7CD0" points="778.305,1467.169 778.104,1538.058 1002.103,1257.848 1002.304,1186.959 	"/>
	<polygon fill="#516BB4" points="723.03,1452.266 722.829,1523.155 778.104,1538.058 778.305,1467.169 	"/>
	<polygon fill="#455B99" points="1466.811,1210.493 1466.61,1281.382 1606.426,1580.019 1606.627,1509.13 	"/>
	<polygon fill="#6080D6" points="1606.426,1580.019 1665.199,1570.891 1665.4,1500.002 1606.627,1509.13 	"/>
	<polygon fill="#6E92F5" points="1525.564,1201.365 1614.153,1208.592 1435.334,1075.955 1396.535,1242.398 1466.811,1210.493 
		1606.627,1509.13 1665.4,1500.002 1560.084,1275.086 	"/>
</g>
</svg>
